<svg xmlns="http://www.w3.org/2000/svg" width="400" height="400"><path fill="#000001" d="M0 0h400v400H0z"/><path fill="none" stroke="#0b6cfb" stroke-linecap="round" stroke-miterlimit="10" stroke-width="6.8" d="m281.143 200 .033.812.099.815.164.818.229.825.292.833.354.844.415.856.474.87.53.887.583.904.634.923.683.944.727.965.768.989.807 1.012.84 1.037.87 1.062.895 1.088.917 1.114.934 1.14.946 1.166.954 1.192.957 1.218.956 1.241.95 1.266.94 1.288.923 1.31.903 1.329.88 1.348.85 1.365.816 1.38.778 1.392.737 1.403.692 1.41.641 1.418.59 1.42.531 1.421.473 1.42.41 1.414.345 1.406.278 1.396.207 1.383.136 1.366.062 1.347-.012 1.325-.088 1.3-.165 1.272-.242 1.242-.319 1.208-.396 1.173-.473 1.136-.549 1.094-.624 1.053-.698 1.007-.77.962-.842.913-.91.864-.976.813-1.04.762-1.103.708-1.16.656-1.216.601-1.268.548-1.317.493-1.362.44-1.404.387-1.442.335-1.476.283-1.507.233-1.533.184-1.555.137-1.573.092-1.588.05-1.598.008-1.605-.03-1.607-.065-1.606-.097-1.602-.127-1.592-.154-1.58-.176-1.566-.196-1.547-.212-1.525-.225-1.501-.232-1.474-.238-1.444-.238-1.413-.236-1.378-.229-1.343-.218-1.305-.204-1.267-.186-1.227-.163-1.186-.138-1.144-.11-1.103-.076-1.06-.041-1.019-.003-.976.04-.936.084-.894.13-.855.18-.816.233-.779.285-.742.34-.71.396-.675.454-.646.512-.618.572-.592.63-.568.69-.546.748-.528.807-.512.864-.499.92-.488.976-.48 1.028-.474 1.08-.472 1.128-.472 1.175-.475 1.219-.48 1.259-.488 1.297-.498 1.33-.51 1.36-.527 1.388-.542 1.41-.562 1.427-.582 1.442-.606 1.452-.629 1.456-.654 1.457-.682 1.453-.709 1.444-.737 1.43-.767 1.411-.797 1.389-.826 1.36-.857 1.33-.886 1.29-.916 1.25-.946 1.205-.974 1.154-1.001 1.1-1.029 1.043-1.054.982-1.078.916-1.1.848-1.123.776-1.142.703-1.159.626-1.175.547-1.188.466-1.2.384-1.21.3-1.215.215-1.22.13-1.224.043-1.223-.043-1.22-.13-1.217-.215-1.209-.3-1.2-.384-1.188-.466-1.175-.547-1.16-.626-1.14-.703-1.123-.776-1.101-.848-1.078-.916-1.054-.982-1.029-1.042-1.001-1.1-.974-1.155-.946-1.204-.916-1.25-.886-1.292-.857-1.328-.826-1.361-.797-1.389-.767-1.411-.737-1.43-.71-1.444-.68-1.453-.655-1.457-.63-1.456-.605-1.452-.582-1.442-.562-1.427-.542-1.41-.526-1.387-.511-1.361-.498-1.33-.488-1.297-.48-1.26-.475-1.218-.472-1.175-.472-1.128-.474-1.08-.48-1.028-.488-.976-.499-.92-.512-.864-.528-.807-.546-.748-.568-.69-.592-.63-.618-.572-.646-.512-.676-.454-.709-.396-.742-.34-.78-.285-.815-.232-.855-.18-.894-.131-.936-.084-.976-.04-1.019.003-1.06.04-1.103.077-1.144.11-1.186.138-1.227.163-1.267.186-1.305.204-1.343.218-1.378.229-1.413.236-1.444.238-1.474.238-1.5.232-1.526.225-1.547.212-1.565.196-1.58.176-1.593.154-1.602.127-1.606.097-1.607.065-1.605.03-1.598-.008-1.588-.05-1.573-.092-1.555-.137-1.533-.184-1.507-.233-1.476-.283-1.442-.335-1.404-.387-1.362-.44-1.317-.493-1.268-.548-1.216-.601-1.16-.656-1.102-.708-1.04-.762-.977-.813-.91-.864-.842-.913-.77-.962-.698-1.007-.624-1.053-.55-1.094-.472-1.136-.396-1.173-.32-1.208-.241-1.242-.165-1.272-.088-1.3-.012-1.325.062-1.347.136-1.366.207-1.383.278-1.396.345-1.406.41-1.415.473-1.419.532-1.42.589-1.421.641-1.417.692-1.411.737-1.403.778-1.393.817-1.38.85-1.364.879-1.348.903-1.33.924-1.31.939-1.287.95-1.266.956-1.241.957-1.218.954-1.192.946-1.166.934-1.14.917-1.114.896-1.088.87-1.062.84-1.037.806-1.012.768-.989.727-.965.683-.944.634-.923.584-.904.53-.886.473-.87.415-.857.354-.844.292-.833.23-.825.163-.818.1-.815.032-.812-.033-.812-.099-.815-.164-.818-.229-.825-.292-.833-.354-.844-.415-.856-.474-.87-.53-.887-.583-.904-.634-.923-.683-.944-.727-.965-.768-.989-.807-1.012-.84-1.037-.87-1.062-.895-1.088-.917-1.114-.934-1.14-.946-1.166-.954-1.192-.957-1.218-.956-1.241-.95-1.266-.94-1.288-.923-1.31-.903-1.329-.88-1.348-.85-1.365-.816-1.38-.778-1.392-.737-1.403-.692-1.41-.641-1.418-.59-1.42-.531-1.421-.473-1.42-.41-1.414-.345-1.406-.278-1.396-.207-1.383-.136-1.366-.062-1.347.012-1.325.088-1.3.165-1.272.242-1.242.319-1.208.396-1.173.473-1.136.549-1.094.624-1.053.698-1.007.77-.962.842-.913.91-.864.976-.813 1.04-.762 1.103-.708 1.16-.656 1.216-.601 1.268-.548 1.317-.493 1.362-.44 1.404-.387 1.442-.335 1.476-.283 1.507-.233 1.533-.184 1.555-.137 1.573-.092 1.588-.05 1.598-.008 1.605.03 1.607.065 1.606.097 1.602.127 1.592.154 1.58.176 1.566.196 1.547.212 1.525.225 1.501.232 1.474.238 1.444.238 1.413.236 1.378.229 1.343.218 1.305.204 1.267.186 1.227.163 1.186.138 1.144.11 1.103.076 1.06.041 1.019.003.976-.04.936-.084.894-.13.855-.18.816-.233.779-.285.742-.34.71-.396.675-.454.646-.512.618-.572.592-.63.568-.69.546-.748.528-.807.512-.864.499-.92.488-.976.48-1.028.474-1.08.472-1.128.472-1.175.475-1.219.48-1.259.488-1.297.498-1.33.51-1.36.527-1.388.542-1.41.562-1.427.582-1.442.606-1.452.629-1.456.654-1.457.682-1.453.709-1.444.737-1.43.767-1.411.797-1.389.826-1.36.857-1.33.886-1.29.916-1.25.946-1.205.974-1.154 1.001-1.1 1.029-1.043 1.054-.982 1.078-.916 1.1-.848 1.123-.776 1.142-.703 1.159-.626 1.175-.547 1.188-.466 1.2-.384 1.21-.3 1.215-.215 1.22-.13 1.224-.043 1.223.043 1.22.13 1.217.215 1.209.3 1.2.384 1.188.466 1.175.547 1.16.626 1.14.703 1.123.776 1.101.848 1.078.916 1.054.982 1.029 1.042 1.001 1.1.974 1.155.946 1.204.916 1.25.886 1.292.857 1.328.826 1.361.797 1.389.767 1.411.737 1.43.71 1.444.68 1.453.655 1.457.63 1.456.605 1.452.582 1.442.562 1.427.542 1.41.526 1.387.511 1.361.498 1.33.488 1.297.48 1.26.475 1.218.472 1.175.472 1.128.474 1.08.48 1.028.488.976.499.92.512.864.528.807.546.748.568.69.592.63.618.572.646.512.676.454.709.396.742.34.78.285.815.232.855.18.894.131.936.084.976.04 1.019-.003 1.06-.04 1.103-.077 1.144-.11 1.186-.138 1.227-.163 1.267-.186 1.305-.204 1.343-.218 1.378-.229 1.413-.236 1.444-.238 1.474-.238 1.5-.232 1.526-.225 1.547-.212 1.565-.196 1.58-.176 1.593-.154 1.602-.127 1.606-.097 1.607-.065 1.605-.03 1.598.008 1.588.05 1.573.092 1.555.137 1.533.184 1.507.233 1.476.283 1.442.335 1.404.387 1.362.44 1.317.493 1.268.548 1.216.601 1.16.656 1.102.708 1.04.762.977.813.91.864.842.913.77.962.698 1.007.624 1.053.55 1.094.472 1.136.396 1.173.32 1.208.241 1.242.165 1.272.088 1.3.012 1.325-.062 1.347-.136 1.366-.207 1.383-.278 1.396-.345 1.406-.41 1.415-.473 1.419-.532 1.42-.589 1.421-.641 1.417-.692 1.411-.737 1.403-.778 1.393-.817 1.38-.85 1.364-.879 1.348-.903 1.33-.924 1.31-.939 1.287-.95 1.266-.956 1.241-.957 1.218-.954 1.192-.946 1.166-.934 1.14-.917 1.114-.896 1.088-.87 1.062-.84 1.037-.806 1.012-.768.989-.727.965-.683.944-.634.923-.584.904-.53.886-.473.87-.415.857-.354.844-.292.833-.23.825-.163.818-.1.815" paint-order="fill stroke markers"/></svg>